# xmcd CD database file
# Copyright (C) 1993-1998 Ti Kan
#
# Track frame offsets:
#	150
#	17202
#	31737
#	41817
#	56682
#	69862
#	83487
#	92930
#	108192
#	126835
#	140150
#	152507
#	165562
#	175117
#
# Disc length: 2532 seconds
#
# Revision: 1
# Processed by: cddbd v1.4b41PL1 Copyright (c) Steve Scherf et al.
# Submitted via: CDValet v3.31 - Copyright (c) 1997 Greg Leichner
#
DISCID=ae09e20e
DTITLE=Ten Cent Shooters, The - Hop
DYEAR=1900
DGENRE=
TTITLE0=Moon Going Down
TTITLE1=The Duck
TTITLE2=Slow Down
TTITLE3=Satisfied And Tickled Too
TTITLE4=The Ins And Outs Of My Girl
TTITLE5=Louis Collins
TTITLE6=Hunkie Tunkie
TTITLE7=Bye Bye Baby Blues
TTITLE8=Don't Leave Me Here
TTITLE9=Howling Wolf Blues
TTITLE10=Ten Cent Shooters
TTITLE11=Got The Blues Can't Be Satisfied
TTITLE12=Bottle Up And Go
TTITLE13=Early Morning Blues
EXTD=Peter Woodward - Vocals, Guitar and Foot\nScott Wise - Man
EXTD=dolin, Harmonica Dobro and Vocals\nSean Diggins - "Slap St
EXTD=yle" Double Bass\n\nfrom Margaret River, Western Australia
EXTT0=
EXTT1=
EXTT2=
EXTT3=
EXTT4=
EXTT5=
EXTT6=
EXTT7=
EXTT8=
EXTT9=
EXTT10=
EXTT11=
EXTT12=
EXTT13=
PLAYORDER=
